<?xml version="1.0" encoding="UTF-8"?>
<svg width="100" height="100" viewBox="0 0 100 100" xmlns="http://www.w3.org/2000/svg">
  <!-- Face -->
  <circle cx="50" cy="50" r="40" fill="#FFD7D7" />
  
  <!-- Hair -->
  <path d="M20,45 C20,25 35,15 50,15 C65,15 80,25 80,45 C80,45 75,30 50,30 C25,30 20,45 20,45 Z" fill="#8B4513" />
  
  <!-- Eyes -->
  <ellipse cx="35" cy="40" rx="5" ry="6" fill="white" />
  <ellipse cx="65" cy="40" rx="5" ry="6" fill="white" />
  <circle cx="35" cy="40" r="2.5" fill="#4B3621" />
  <circle cx="65" cy="40" r="2.5" fill="#4B3621" />
  
  <!-- Eyebrows -->
  <path d="M30,32 Q35,28 40,32" stroke="#8B4513" stroke-width="2" fill="none" />
  <path d="M60,32 Q65,28 70,32" stroke="#8B4513" stroke-width="2" fill="none" />
  
  <!-- Smile -->
  <path d="M35,60 Q50,70 65,60" stroke="#FF6B6B" stroke-width="3" fill="none" />
  
  <!-- Blush -->
  <circle cx="30" cy="55" r="5" fill="#FFB6C1" opacity="0.5" />
  <circle cx="70" cy="55" r="5" fill="#FFB6C1" opacity="0.5" />
  
  <!-- Spoon -->
  <path d="M75,65 L85,45 C88,42 88,38 85,35 C82,32 78,32 75,35 C72,38 72,42 75,45 L65,65" fill="#D3D3D3" stroke="#A9A9A9" stroke-width="1" />
  <ellipse cx="70" cy="65" rx="5" ry="3" fill="#D3D3D3" stroke="#A9A9A9" stroke-width="1" />
</svg> 